<?xml version="1.0" encoding="utf-8"?>
<!-- Generator: Adobe Illustrator 22.0.1, SVG Export Plug-In . SVG Version: 6.00 Build 0)  -->
<svg version="1.1" id="Layer_1" xmlns="http://www.w3.org/2000/svg" xmlns:xlink="http://www.w3.org/1999/xlink" x="0px" y="0px"
	 viewBox="0 0 50 50" enable-background="new 0 0 50 50" xml:space="preserve">
<g>
	<rect x="13.1" y="2" fill="#2ABDBB" width="3.3" height="45.4"/>
</g>
<g>
	<path d="M11.8,48.4c-0.4,0-0.8-0.4-0.8-0.8V2.1c0-0.4,0.4-0.8,0.8-0.8c0.4,0,0.8,0.4,0.8,0.8v45.5C12.6,48,12.2,48.4,11.8,48.4z"/>
</g>
<g>
	<path d="M15.1,48.4c-0.4,0-0.8-0.4-0.8-0.8V2.1c0-0.4,0.4-0.8,0.8-0.8c0.4,0,0.8,0.4,0.8,0.8v45.5C16,48,15.6,48.4,15.1,48.4z"/>
</g>
<g>
	<path d="M26,2.9H7.5C7,2.9,6.6,2.5,6.6,2.1S7,1.3,7.5,1.3H26c0.4,0,0.8,0.4,0.8,0.8S26.5,2.9,26,2.9z"/>
</g>
<g>
	<path d="M32,48.4L32,48.4l-24.6,0c-0.4,0-0.8-0.4-0.8-0.8c0-0.4,0.4-0.8,0.8-0.8l0,0l24.6,0c0.4,0,0.8,0.4,0.8,0.8
		S32.5,48.4,32,48.4z"/>
</g>
<g>
	<path d="M7.5,4.9C7,4.9,6.6,4.6,6.6,4.1v-2c0-0.4,0.4-0.8,0.8-0.8s0.8,0.4,0.8,0.8v2C8.3,4.6,7.9,4.9,7.5,4.9z"/>
</g>
<g>
	<path d="M7.5,48.4c-0.4,0-0.8-0.4-0.8-0.8v-2c0-0.4,0.4-0.8,0.8-0.8s0.8,0.4,0.8,0.8v2C8.3,48,7.9,48.4,7.5,48.4z"/>
</g>
<g>
	<path d="M28.6,23.3H15.1c-0.4,0-0.8-0.4-0.8-0.8c0-0.4,0.4-0.8,0.8-0.8h13.5c0.4,0,0.8,0.4,0.8,0.8C29.5,22.9,29.1,23.3,28.6,23.3z
		"/>
</g>
<g>
	<path fill="#050606" d="M28.6,23.3c-0.4,0-0.7-0.3-0.8-0.7c-0.1-0.4,0.2-0.9,0.7-0.9c1.8-0.3,3.4-1,4.7-2.2c3-2.6,4-7,2.5-10.7
		c-1.6-3.8-5.4-6.2-9.6-5.9c-0.5,0-0.8-0.3-0.9-0.8c0-0.4,0.3-0.8,0.8-0.9c4.9-0.3,9.4,2.4,11.2,6.9c1.8,4.3,0.6,9.5-2.9,12.6
		c-1.5,1.3-3.4,2.2-5.5,2.5C28.7,23.3,28.7,23.3,28.6,23.3z"/>
</g>
<g>
	<path fill="#050606" d="M32.6,48.4c-0.2,0-0.4,0-0.6,0c-0.4,0-0.8-0.4-0.8-0.8c0-0.4,0.4-0.8,0.8-0.8c4.2,0.2,8-1.8,10.1-5.1
		c3.2-5.2,0.1-10.9-0.5-11.9c-2.5-4.3-7.5-6.7-12.9-6.5c-0.4,0-0.8-0.3-0.9-0.8c0-0.4,0.3-0.8,0.8-0.9c6.1-0.3,11.5,2.5,14.4,7.3
		c0.7,1.2,4.2,7.7,0.5,13.6C41.3,46.2,37.1,48.4,32.6,48.4z"/>
</g>
</svg>
